<?xml version="1.0" standalone="no"?>
<!DOCTYPE svg PUBLIC "-//W3C//DTD SVG 20010904//EN"
 "http://www.w3.org/TR/2001/REC-SVG-20010904/DTD/svg10.dtd">
<svg version="1.0" xmlns="http://www.w3.org/2000/svg"
 width="500.000000pt" height="500.000000pt" viewBox="0 0 500.000000 500.000000"
 preserveAspectRatio="xMidYMid meet">
<metadata>
Created by potrace 1.11, written by Peter Selinger 2001-2013
</metadata>
<g transform="translate(0.000000,500.000000) scale(0.100000,-0.100000)"
fill="#000000" stroke="none">
<path d="M1900 4732 c98 -66 190 -154 190 -184 0 -8 -45 -9 -162 -4 -90 3
-174 8 -188 11 -56 11 -220 5 -293 -10 -107 -22 -221 -67 -319 -126 -46 -28
-87 -54 -91 -58 -4 -4 31 -15 78 -25 100 -19 183 -49 220 -78 l27 -21 -34 -20
c-108 -66 -275 -179 -348 -236 -85 -66 -250 -227 -250 -243 0 -5 15 -7 33 -4
70 12 187 18 187 10 0 -5 -15 -20 -32 -34 -61 -47 -193 -178 -211 -210 l-19
-31 44 6 c23 3 54 8 68 10 57 11 110 13 110 3 0 -5 -8 -22 -19 -36 -96 -138
-265 -472 -238 -472 2 0 39 20 83 45 43 25 84 45 90 45 6 0 -7 -34 -29 -76
-45 -88 -69 -167 -60 -204 3 -14 20 -54 38 -90 66 -132 85 -223 91 -414 4
-132 3 -139 -13 -124 -36 31 -104 58 -160 64 -48 4 -64 2 -91 -15 -38 -25 -66
-68 -88 -136 -22 -67 -27 -298 -9 -381 37 -171 134 -326 315 -502 103 -100
139 -120 211 -113 9 0 28 12 43 26 18 16 28 21 31 12 2 -6 13 -43 25 -82 12
-38 25 -79 30 -90 4 -11 18 -46 30 -78 121 -313 585 -590 1085 -646 407 -47
837 60 1190 295 135 90 231 176 282 252 23 34 61 120 93 208 29 82 56 151 58
154 3 3 7 -1 9 -8 8 -21 76 -50 108 -45 43 6 92 43 195 147 149 151 225 268
271 416 20 65 24 96 24 225 -1 209 -32 304 -117 350 -32 17 -43 18 -95 9 -32
-6 -75 -18 -96 -28 l-37 -16 15 37 c9 21 25 47 35 58 19 20 19 21 -10 79 -31
62 -41 141 -19 163 27 27 46 325 24 393 -5 16 -2 20 15 20 11 0 34 7 49 15 28
14 28 16 20 62 -11 59 -58 158 -93 198 -14 17 -26 33 -26 36 0 13 38 49 63 58
15 6 27 15 27 20 0 15 -85 115 -132 156 l-43 38 90 -6 90 -6 -55 51 c-30 28
-65 57 -78 66 -36 23 -20 24 52 1 38 -11 70 -19 72 -17 7 8 -111 124 -159 157
-27 18 -46 36 -43 39 4 3 50 5 103 3 l97 -2 -59 47 c-51 40 -160 114 -219 149
-15 9 -12 16 28 60 61 70 122 99 193 93 l56 -5 -34 28 c-99 82 -273 139 -426
140 l-103 0 17 27 c41 67 112 121 178 137 l30 7 -25 11 c-14 6 -100 11 -195
11 -164 1 -217 -6 -299 -39 -17 -8 -17 -7 -1 26 35 68 75 108 118 120 l42 11
-28 14 c-15 8 -64 25 -110 36 -122 33 -359 32 -471 -1 -96 -28 -181 -67 -264
-121 l-64 -41 -46 39 c-76 63 -235 178 -257 187 -70 26 -148 37 -310 42 l-180
5 75 -50z"/>
</g>
</svg>
