<svg version="1.0" xmlns="http://www.w3.org/2000/svg" width="800" height="800" viewBox="0 0 600 600"><path d="M275.5.6c-1.6.2-7.3.9-12.5 1.5-34.3 3.8-74.4 16.7-106.1 34C130.2 50.7 110.2 65.8 88 88c-35.2 35.1-57.7 71.7-73.5 119.5C4.2 238.6.5 262.9.5 300c0 16.1.5 30.4 1.3 36.5C9.1 392.3 31 444.3 65.5 487.6c10.1 12.7 34.2 36.8 46.9 46.9 43.3 34.5 95.3 56.4 151.1 63.7 13.3 1.7 59.7 1.7 73 0 55.9-7.3 107.8-29.2 151.5-64 12.3-9.9 36.5-34 46.5-46.6 34.5-43.3 56.4-95.3 63.7-151.1.8-6.1 1.3-20.4 1.3-36.5s-.5-30.4-1.3-36.5c-7.3-55.8-29.2-107.8-63.7-151.1-10.1-12.7-34.2-36.8-46.9-46.9-41.8-33.2-90.2-54.3-144.1-62.7-9.9-1.5-19.1-2.1-39-2.3-14.3-.2-27.3-.1-29 .1zM200 162.5V175h-25v-25h25v12.5zm-25 50V225h25v-25h25v25h-25v150h25v25h-75v-25h25V225h-25v-25h25v12.5zm150 0V225h25v25h-25v-25h-50v150h50v-25h25v25h-25v25h-50v-25h-25V225h25v-25h50v12.5zm125 0V225h25v25h-25v-25h-50v50h25v25h-25v100h-25V225h25v-25h50v12.5z"/></svg>