<?xml version="1.0" standalone="no"?>
<!DOCTYPE svg PUBLIC "-//W3C//DTD SVG 20010904//EN"
 "http://www.w3.org/TR/2001/REC-SVG-20010904/DTD/svg10.dtd">
<svg version="1.0" xmlns="http://www.w3.org/2000/svg"
 width="600.000000pt" height="600.000000pt" viewBox="0 0 600.000000 600.000000"
 preserveAspectRatio="xMidYMid meet">
<metadata>
Created by potrace 1.11, written by Peter Selinger 2001-2013
</metadata>
<g transform="translate(0.000000,600.000000) scale(0.100000,-0.100000)"
fill="#000000" stroke="none">
<path d="M2755 5994 c-16 -2 -73 -9 -125 -15 -343 -38 -744 -167 -1061 -340
-267 -146 -467 -297 -689 -519 -352 -351 -577 -717 -735 -1195 -103 -311 -140
-554 -140 -925 0 -161 5 -304 13 -365 73 -558 292 -1078 637 -1511 101 -127
342 -368 469 -469 433 -345 953 -564 1511 -637 133 -17 597 -17 730 0 559 73
1078 292 1515 640 123 99 365 340 465 466 345 433 564 953 637 1511 8 61 13
204 13 365 0 161 -5 304 -13 365 -73 558 -292 1078 -637 1511 -101 127 -342
368 -469 469 -418 332 -902 543 -1441 627 -99 15 -191 21 -390 23 -143 2 -273
1 -290 -1z m-755 -1619 l0 -125 -125 0 -125 0 0 125 0 125 125 0 125 0 0 -125z
m-250 -500 l0 -125 125 0 125 0 0 125 0 125 125 0 125 0 0 -125 0 -125 -125 0
-125 0 0 -750 0 -750 125 0 125 0 0 -125 0 -125 -375 0 -375 0 0 125 0 125
125 0 125 0 0 750 0 750 -125 0 -125 0 0 125 0 125 125 0 125 0 0 -125z m1500
0 l0 -125 125 0 125 0 0 -125 0 -125 -125 0 -125 0 0 125 0 125 -250 0 -250 0
0 -750 0 -750 250 0 250 0 0 125 0 125 125 0 125 0 0 -125 0 -125 -125 0 -125
0 0 -125 0 -125 -250 0 -250 0 0 125 0 125 -125 0 -125 0 0 750 0 750 125 0
125 0 0 125 0 125 250 0 250 0 0 -125z m1250 0 l0 -125 125 0 125 0 0 -125 0
-125 -125 0 -125 0 0 125 0 125 -250 0 -250 0 0 -250 0 -250 125 0 125 0 0
-125 0 -125 -125 0 -125 0 0 -500 0 -500 -125 0 -125 0 0 875 0 875 125 0 125
0 0 125 0 125 250 0 250 0 0 -125z"/>
</g>
</svg>
